<?xml version="1.0" encoding="UTF-8" standalone="no"?>
<!-- Created with Inkscape (http://www.inkscape.org/) -->

<svg
   width="16"
   height="16"
   fill="currentColor"
   viewBox="0 0 512 512">
  <path
     d="M 123.18432,511.16422 C 81.01311,507.94456 50.348438,480.98788 44.057,441.60502 c -2.676751,-16.75577 -0.685705,-56.32198 4.11173,-81.70866 12.411074,-65.67594 43.992652,-104.44237 90.55794,-111.16003 18.70539,-2.6985 21.68371,-1.81383 45.58279,13.53976 51.40952,33.0272 92.35987,32.80184 144.62426,-0.79595 7.79797,-5.01287 16.61467,-10.23242 19.59265,-11.59901 l 5.41454,-2.4847 10.62563,0.60795 c 64.97431,3.71756 104.20895,67.34721 104.51564,169.50054 l 0.0602,20.03776 -1.59967,7.01322 c -9.14076,40.07454 -37.06389,63.23262 -80.34774,66.63651 -13.91011,1.0939 -249.64304,1.06874 -264.0106,-0.0282 z M 230.39713,243.6644 C 165.94468,232.30244 121.56632,169.97227 131.16927,104.29721 138.71061,52.721745 179.96409,10.603842 231.76632,1.5922574 L 240.91926,6.5003823e-8 257.45042,0.51835981 C 364.62369,3.8789426 415.51296,133.49813 339.50159,209.5095 310.2148,238.79629 271.51156,250.91225 230.39713,243.6644 Z"
     id="path1"
     style="stroke-width:0.93927" />
</svg>
